<mxfile host="app.diagrams.net" modified="2023-05-23T07:10:06.958Z" agent="Mozilla/5.0 (Windows NT 10.0; Win64; x64) AppleWebKit/537.36 (KHTML, like Gecko) Chrome/113.0.0.0 Safari/537.36" etag="ZgEvfm992obpv2BJsNYZ" version="21.3.2" type="device">
  <diagram name="Page-1" id="UBtBKe5FxqSNOETilzT4">
    <mxGraphModel dx="1050" dy="541" grid="1" gridSize="10" guides="1" tooltips="1" connect="1" arrows="1" fold="1" page="1" pageScale="1" pageWidth="827" pageHeight="1169" math="0" shadow="0">
      <root>
        <mxCell id="0" />
        <mxCell id="1" parent="0" />
        <mxCell id="ZTniWzOjLyrn6vVbjFKj-1" value="Selects&lt;br&gt;Option" style="rounded=0;orthogonalLoop=1;jettySize=auto;html=1;exitX=1;exitY=0.5;exitDx=0;exitDy=0;entryX=0;entryY=0.5;entryDx=0;entryDy=0;fontSize=14;" edge="1" parent="1" source="ZTniWzOjLyrn6vVbjFKj-2" target="ZTniWzOjLyrn6vVbjFKj-4">
          <mxGeometry relative="1" as="geometry" />
        </mxCell>
        <mxCell id="ZTniWzOjLyrn6vVbjFKj-2" value="User" style="rounded=0;whiteSpace=wrap;html=1;fontSize=14;" vertex="1" parent="1">
          <mxGeometry x="60" y="240" width="120" height="60" as="geometry" />
        </mxCell>
        <mxCell id="ZTniWzOjLyrn6vVbjFKj-3" value="Customizes&lt;br&gt;Summarization&lt;br&gt;" style="rounded=0;orthogonalLoop=1;jettySize=auto;html=1;exitX=1;exitY=0.5;exitDx=0;exitDy=0;fontSize=14;" edge="1" parent="1" source="ZTniWzOjLyrn6vVbjFKj-4" target="ZTniWzOjLyrn6vVbjFKj-5">
          <mxGeometry x="0.0152" y="-7" relative="1" as="geometry">
            <mxPoint as="offset" />
          </mxGeometry>
        </mxCell>
        <mxCell id="ZTniWzOjLyrn6vVbjFKj-4" value="Customization Logic" style="rounded=0;whiteSpace=wrap;html=1;fontSize=14;" vertex="1" parent="1">
          <mxGeometry x="360" y="180" width="140" height="60" as="geometry" />
        </mxCell>
        <mxCell id="ZTniWzOjLyrn6vVbjFKj-5" value="Summarization Engine" style="rounded=0;whiteSpace=wrap;html=1;fontSize=14;" vertex="1" parent="1">
          <mxGeometry x="700" y="240" width="120" height="60" as="geometry" />
        </mxCell>
      </root>
    </mxGraphModel>
  </diagram>
</mxfile>
